<svg width="32" height="32" viewBox="0 0 32 32" fill="none" xmlns="http://www.w3.org/2000/svg">
<path d="M6.64405 5.08507C4.86084 5.4713 3.22852 6.68029 2.16651 8.40148C1.08301 10.1568 0.73438 12.2242 1.20997 14.0738C1.89649 16.7433 4.08497 18.1861 5.32813 18.8092C6.31104 19.3014 6.91944 20.2887 6.87793 21.3234C6.87354 21.4249 6.86524 21.5138 6.85694 21.5875C6.60889 23.7027 4.44922 25.5411 1.60499 26.0587C1.34473 26.1056 1.16651 26.3473 1.19776 26.61C1.22803 26.8624 1.44239 27.0504 1.69385 27.0504C1.70362 27.0504 1.71338 27.0499 1.72364 27.0494C3.44922 26.9488 9.35547 26.2223 12.8955 21.1002C15.3814 17.5035 16.7925 11.9381 14.0171 8.21788C12.5059 6.19152 9.64161 4.43712 6.64405 5.08507ZM12.0732 20.5318C10.3608 23.0089 7.99561 24.3766 5.93311 25.1315C7.00586 24.1935 7.69776 23.0045 7.8501 21.7032C7.86133 21.6085 7.87159 21.4952 7.87696 21.3644C7.93458 19.9366 7.10987 18.5826 5.77588 17.9147C4.44288 17.2472 2.73682 15.9957 2.17872 13.8248C1.77002 12.2374 2.07618 10.4518 3.01709 8.92638C3.9375 7.43517 5.33643 6.39122 6.85596 6.06261C7.20606 5.98644 7.55665 5.95128 7.90333 5.95128C10.0772 5.95128 12.1138 7.33849 13.2153 8.81554C16.0708 12.6437 13.7168 18.1534 12.0732 20.5318Z" fill="#008906"/>
<path d="M22.1049 5.08574C20.3217 5.47197 18.6898 6.68047 17.6278 8.40166C16.5443 10.157 16.1952 12.2249 16.6708 14.0745C17.3578 16.7439 19.5458 18.1873 20.789 18.8099C21.7724 19.302 22.3808 20.2894 22.3388 21.324C22.3344 21.4246 22.3271 21.5125 22.3178 21.5882C22.0697 23.7034 19.9101 25.5418 17.0658 26.0594C16.8056 26.1062 16.6273 26.3479 16.6586 26.6106C16.6889 26.8631 16.9032 27.0511 17.1547 27.0511C17.1645 27.0511 17.1742 27.0506 17.1845 27.0501C18.9101 26.9495 24.8163 26.2229 28.3563 21.1009C30.8422 17.5047 32.2538 11.9393 29.4779 8.21855C27.9667 6.19219 25.1 4.43877 22.1049 5.08574ZM27.5341 20.5325C25.8217 23.0096 23.4569 24.3768 21.3949 25.1321C22.4672 24.1946 23.1581 23.0061 23.3109 21.7063C23.3222 21.6111 23.3324 21.4969 23.3378 21.365C23.3959 19.9378 22.5712 18.5838 21.2367 17.9153C19.9042 17.2483 18.1981 15.9969 17.6396 13.8255C17.2313 12.2376 17.537 10.452 18.4784 8.92656C19.3988 7.43584 20.7978 6.39189 22.3168 6.06328C22.6669 5.98711 23.017 5.95195 23.3642 5.95195C25.538 5.95195 27.5751 7.33916 28.6762 8.81621C31.5321 12.6448 29.1776 18.1541 27.5341 20.5325Z" fill="#008906"/>
</svg>
